<svg width="16" height="13" viewBox="0 0 16 13" fill="none" xmlns="http://www.w3.org/2000/svg">
<path d="M16 1.496C15.403 1.7808 14.7641 1.97048 14.107 2.058C14.7691 1.683 15.337 1.028 15.5263 0.281C14.8642 0.655 14.2002 0.935 13.444 1.029C12.8751 0.374 12.0238 0 11.0763 0C9.27749 0 7.76414 1.496 7.76414 3.273C7.76414 3.554 7.76414 3.741 7.85929 4.022C5.11198 3.835 2.65115 2.619 1.04163 0.562C0.758193 1.121 0.566873 1.682 0.566873 2.244C0.566873 3.366 1.13476 4.394 2.08225 4.956C1.51335 4.956 1.03961 4.769 0.566873 4.582C0.562754 5.33462 0.825719 6.06487 1.31006 6.64583C1.7944 7.22679 2.4695 7.62173 3.21802 7.762C2.93458 7.855 2.65013 7.949 2.36568 7.949C2.17639 7.949 1.98709 7.949 1.70264 7.855C2.08225 9.165 3.31216 10.1 4.82753 10.1C3.69075 10.941 2.27154 11.503 0.756168 11.503H0C1.42022 12.439 3.21903 13 5.11198 13C11.1715 13 14.4856 8.043 14.4856 3.741V3.273C15.0888 2.76981 15.6009 2.1689 16 1.496Z" fill="black"/>
</svg>
